# xmcd CD database file generated by Grip 2.94
# 
# Track frame offsets:
#       150
#       12764
#       43026
#       72273
#       83695
#       108915
#       137540
#       159412
#       178621
#       190721
#       210441
#       221470
#       237299
#       259734
#       276446
#       301360
# 
# Disc length: 4289 seconds
# 
# Revision: 3
# Processed by: cddbd v1.4b41PL1 Copyright (c) Steve Scherf et al.
# Submitted via: Grip 2.94
# 
DISCID=d410bf10
DTITLE=Led Zeppelin - Best of Led Zeppelin
DYEAR=1900
DGENRE=
TTITLE0=Good Times Bad Times
TTITLE1=Babe I'm Gonna Leave You
TTITLE2=You Shook Me
TTITLE3=Communication Breakdown
TTITLE4=Whole Lotta Love
TTITLE5=The Lemmon Song
TTITLE6=Thank You
TTITLE7=Heat Breaker
TTITLE8=Living Loving Maid
TTITLE9=Moby Dick
TTITLE10=Immigrant Song
TTITLE11=Celebration Day
TTITLE12=Black Dog
TTITLE13=Rock and Roll
TTITLE14=The Song Remains the Same
TTITLE15=The Ocean
EXTD=
EXTT0=
EXTT1=
EXTT2=
EXTT3=
EXTT4=
EXTT5=
EXTT6=
EXTT7=
EXTT8=
EXTT9=
EXTT10=
EXTT11=
EXTT12=
EXTT13=
EXTT14=
EXTT15=
PLAYORDER=
